<svg xmlns="http://www.w3.org/2000/svg" width="1250" height="500" viewBox="0 0 1250 500" version="1.1"><path d="M 0 250.001 L 0 500.002 625.250 499.751 L 1250.500 499.500 1250.752 249.750 L 1251.004 -0 625.502 -0 L 0 0 0 250.001 M 0.492 250.500 C 0.492 388, 0.608 444.101, 0.750 375.170 C 0.892 306.238, 0.892 193.738, 0.750 125.170 C 0.608 56.601, 0.492 113, 0.492 250.500 M 468 137.500 C 468 153.725, 467.732 167, 467.404 167 C 467.077 167, 465.522 166.083, 463.948 164.963 C 456.055 159.343, 445.409 157.085, 435.458 158.921 C 422.676 161.279, 413.548 168.517, 407.670 180.955 C 402.627 191.626, 402.807 208.737, 408.071 219.118 C 411.427 225.736, 419.465 233.481, 426.209 236.595 C 431.756 239.157, 433.623 239.500, 442 239.499 C 452.682 239.498, 457.730 237.810, 464.301 232.041 L 468 228.793 468 233.396 L 468 238 481 238 L 494 238 494 173 L 494 108 481 108 L 468 108 468 137.500 M 642.507 112.615 C 628.879 115.910, 612.985 125.960, 604.691 136.527 C 595.302 148.490, 590.896 161.077, 590.875 176 C 590.857 188.314, 593.955 198.489, 600.979 209.181 C 616.697 233.111, 645.196 244.329, 675.524 238.527 C 683.144 237.069, 696.030 231.874, 698.043 229.448 C 699.297 227.938, 688.137 204.691, 686.512 205.428 C 676.259 210.079, 671.755 211.377, 664.500 211.771 C 646.347 212.756, 632.490 205.283, 625.125 190.537 C 616.357 172.980, 625.929 149.297, 644.798 141.861 C 649.439 140.032, 652.547 139.603, 661.500 139.557 C 672.717 139.499, 673.586 139.708, 686.512 145.572 C 687.069 145.825, 690.152 140.753, 693.363 134.302 L 699.202 122.573 696.351 120.279 C 686.757 112.560, 659.050 108.616, 642.507 112.615 M 53.219 114.224 C 53.468 114.926, 61.479 143.063, 71.021 176.750 L 88.370 238 104.110 238 L 119.850 238 121.230 233.250 C 121.989 230.637, 126.411 215.115, 131.055 198.755 C 135.700 182.395, 139.725 169.010, 140 169.010 C 140.275 169.010, 144.300 182.395, 148.945 198.755 C 153.589 215.115, 158.011 230.637, 158.770 233.250 L 160.150 238 175.825 237.996 L 191.500 237.993 208.905 176.746 C 218.477 143.061, 226.517 114.926, 226.772 114.224 C 227.137 113.216, 223.909 113.006, 211.428 113.224 L 195.623 113.500 185.283 155 C 179.596 177.825, 174.683 197.175, 174.366 198 C 173.643 199.876, 173.533 199.497, 160.927 151.750 L 150.696 113 140.019 113 L 129.343 113 117.964 155.960 C 111.706 179.587, 106.342 198.679, 106.043 198.386 C 105.744 198.093, 100.748 178.873, 94.941 155.676 L 84.382 113.500 68.574 113.224 C 56.095 113.006, 52.861 113.217, 53.219 114.224 M 1015 145.471 L 1015 160 1008.965 160 L 1002.930 160 1003.215 170.250 L 1003.500 180.500 1009.250 180.800 L 1015 181.100 1015 200.012 C 1015 216.550, 1015.254 219.604, 1017.024 224.333 C 1020.984 234.919, 1029.083 240, 1041.997 240 C 1048.088 240, 1056.743 238.151, 1059.717 236.215 C 1061.506 235.050, 1054.890 214.336, 1052.913 214.910 C 1043.029 217.779, 1042 216.023, 1042 196.277 L 1042 181 1050 181 L 1058 181 1058 170.500 L 1058 160 1050.027 160 L 1042.055 160 1041.777 145.750 L 1041.500 131.500 1028.250 131.221 L 1015 130.942 1015 145.471 M 265.182 159.119 C 254.152 160.953, 241.780 168.179, 235.995 176.166 C 230.590 183.627, 228.764 190.300, 229.198 201 C 229.678 212.824, 232.550 219.744, 239.982 226.982 C 257.894 244.430, 292.106 244.430, 310.018 226.982 C 321.473 215.825, 324.708 197.096, 317.758 182.163 C 314.857 175.929, 305.783 166.997, 298.983 163.682 C 288.892 158.764, 276.982 157.155, 265.182 159.119 M 376.159 159.849 C 372.711 161.079, 369.079 163.468, 365.909 166.590 L 361 171.425 361 165.712 L 361 160 347.500 160 L 334 160 334 199 L 334 238 347.500 238 L 361 238 361 216.468 C 361 193.658, 361.566 190.220, 366.119 185.374 C 369.390 181.892, 376.102 180.481, 382.541 181.922 C 385.525 182.589, 388.225 183.555, 388.542 184.068 C 389.867 186.211, 391.263 184.442, 396.522 173.957 L 402.060 162.914 397.393 160.850 C 390.706 157.891, 382.703 157.514, 376.159 159.849 M 739.510 159.175 C 727.088 161.544, 713.026 171.882, 708.242 182.163 C 703.136 193.133, 703.517 207.561, 709.193 218.210 C 724.746 247.391, 777.342 247.428, 792.750 218.268 C 798.576 207.241, 799.257 196.116, 794.831 184.271 C 792.205 177.243, 783.025 167.566, 775.241 163.622 C 765.169 158.518, 751.728 156.845, 739.510 159.175 M 949.665 159.481 C 947.556 160.291, 943.619 162.578, 940.915 164.562 L 936 168.170 936 164.085 L 936 160 922.500 160 L 909 160 909 199 L 909 238 922.500 238 L 936 238 936 214.968 C 936 197.536, 936.339 191.125, 937.394 188.600 C 940.677 180.742, 951.960 176.664, 958.701 180.900 C 965.044 184.885, 965.465 186.830, 965.814 213.750 L 966.129 238 979.644 238 L 993.158 238 992.781 208.750 C 992.456 183.595, 992.159 178.965, 990.660 175.682 C 987.935 169.714, 981.106 163.560, 974.407 161.034 C 966.861 158.189, 954.974 157.443, 949.665 159.481 M 1095.500 159.386 C 1079.634 163.244, 1066.206 177.841, 1064.075 193.547 C 1062.384 206.009, 1066.401 218.072, 1075.228 227.040 C 1084.350 236.307, 1093.368 239.979, 1107 239.977 C 1121.609 239.976, 1132.184 235.991, 1140.750 227.261 C 1143.638 224.318, 1146 221.357, 1146 220.681 C 1146 220.005, 1141.832 217.381, 1136.738 214.850 L 1127.476 210.250 1123.667 213.542 C 1112.311 223.359, 1092 218.232, 1092 205.550 L 1092 203 1120 203 L 1148 203 1148 199.184 C 1148 192.575, 1145.927 183.798, 1142.993 177.987 C 1135.209 162.565, 1114.989 154.647, 1095.500 159.386 M 1204.994 158.934 C 1200.405 160.330, 1196.445 162.802, 1192.201 166.920 L 1188 170.998 1188 165.499 L 1188 160 1174.500 160 L 1161 160 1161 199 L 1161 238 1174.500 238 L 1188 238 1188 216.212 C 1188 195.599, 1188.121 194.184, 1190.250 189.985 C 1193.238 184.089, 1197.562 181.664, 1204.961 181.734 C 1208.161 181.764, 1212.059 182.496, 1213.795 183.394 C 1215.503 184.277, 1217.144 185, 1217.442 185 C 1217.740 185, 1220.498 179.986, 1223.571 173.858 C 1229.779 161.480, 1229.853 162.010, 1221.568 159.496 C 1216.346 157.912, 1209.156 157.668, 1204.994 158.934 M 809.193 188.250 L 809.500 216.500 812.189 222 C 816.489 230.794, 820.565 234.366, 830 237.609 C 838.021 240.367, 862.949 240.336, 871.423 237.559 C 883.009 233.761, 889.786 225.791, 891.938 213.433 C 892.522 210.080, 893 196.686, 893 183.668 L 893 160 879.579 160 L 866.159 160 865.829 183.750 C 865.463 210.177, 864.736 213.534, 858.709 216.651 C 854.482 218.836, 843.914 218.127, 840.919 215.456 C 836.351 211.385, 835.735 207.903, 835.218 183.250 L 834.731 160 821.809 160 L 808.886 160 809.193 188.250 M 1099.096 177.265 C 1096.382 178.660, 1093.483 182.397, 1092.515 185.750 L 1091.865 188 1106.433 188 C 1119.436 188, 1121 187.819, 1121 186.312 C 1121 183.860, 1116.915 178.282, 1114.221 177.055 C 1111.077 175.622, 1102.048 175.748, 1099.096 177.265 M 267.500 182.417 C 258.290 186.528, 254.448 197.785, 258.905 207.599 C 261.903 214.199, 266.064 216.500, 275 216.500 C 281.257 216.500, 283.043 216.113, 285.773 214.166 C 294.336 208.058, 295.526 194.477, 288.186 186.627 C 283.148 181.239, 274.214 179.421, 267.500 182.417 M 442.500 182.417 C 433.290 186.528, 429.448 197.785, 433.905 207.599 C 436.903 214.199, 441.064 216.500, 450 216.500 C 456.257 216.500, 458.043 216.113, 460.773 214.166 C 469.336 208.058, 470.526 194.477, 463.186 186.627 C 458.148 181.239, 449.214 179.421, 442.500 182.417 M 743.500 182.881 C 738.742 185.066, 736.610 187.296, 734.538 192.254 C 729.426 204.490, 737.814 217.024, 751.088 216.984 C 758.292 216.962, 763.591 213.939, 766.675 208.093 C 775.062 192.194, 759.674 175.454, 743.500 182.881 M 18 278 L 18 285 267 285 L 516 285 516 278 L 516 271 267 271 L 18 271 18 278 M 558.204 278.750 L 558.500 285.500 897.250 285.751 L 1236 286.003 1236 279.001 L 1236 272 896.954 272 L 557.909 272 558.204 278.750 M 876.500 309.269 C 870.677 311.667, 867.263 313.937, 864.155 317.477 C 861.145 320.904, 857 328.012, 857 329.746 C 857 330.451, 869.186 337, 870.499 337 C 870.752 337, 871.842 335.270, 872.921 333.155 C 875.824 327.464, 881.345 323, 885.479 323 C 892.289 323, 896.761 330.263, 894.715 338 C 892.799 345.242, 878.557 362.195, 863.630 375 C 858.423 379.467, 856.045 382.204, 856.027 383.750 L 856 386 886 386 L 916 386 916 378.500 L 916 371 901.750 370.989 L 887.500 370.978 891 368.335 C 898.096 362.976, 908.788 351.132, 911.459 345.673 C 913.580 341.337, 914.164 338.722, 914.126 333.727 C 914.004 317.802, 904.769 308.957, 887.608 308.330 C 882.770 308.154, 878.290 308.532, 876.500 309.269 M 241.750 316.191 L 231 323.260 231 331.729 L 231 340.198 234.336 338.229 C 236.171 337.146, 238.871 335.475, 240.336 334.515 L 243 332.770 243 359.385 L 243 386 252.012 386 L 261.024 386 260.762 347.750 L 260.500 309.500 256.500 309.311 C 253.070 309.149, 250.968 310.130, 241.750 316.191" stroke="none" fill="#ffffff" fill-rule="evenodd"/><path d="M 645.500 112.482 C 624.729 117.062, 607.340 130.011, 598.331 147.605 C 592.673 158.657, 591.492 163.691, 591.551 176.500 C 591.591 185.279, 592.061 188.812, 593.877 194 C 601.017 214.399, 618.132 230.400, 640 237.121 C 646.090 238.993, 649.756 239.422, 659.500 239.401 C 673.218 239.372, 680.569 237.803, 691.776 232.510 L 699.052 229.074 693.088 217.176 L 687.125 205.279 681.312 208.115 C 671.582 212.862, 658.196 213.639, 646.389 210.141 C 632.570 206.047, 621 190.262, 621 175.500 C 621 166.318, 626.972 153.580, 634.100 147.558 C 645.655 137.795, 665.722 135.730, 681.271 142.704 C 684.445 144.127, 687.206 145.114, 687.406 144.896 C 687.607 144.678, 690.293 139.454, 693.376 133.286 L 698.980 122.073 694.740 119.624 C 686.477 114.852, 668.839 110.893, 656.678 111.079 C 653.830 111.123, 648.800 111.754, 645.500 112.482 M 1015 146.500 L 1015 161 1009.500 161 L 1004 161 1004 170.500 L 1004 180 1009.411 180 L 1014.822 180 1015.161 200.250 C 1015.487 219.739, 1015.600 220.714, 1018.163 226.181 C 1023.980 238.589, 1038.730 243.059, 1055.267 237.425 C 1057.870 236.538, 1060 235.358, 1060 234.802 C 1060 233.275, 1054.806 216.608, 1054.066 215.760 C 1053.710 215.352, 1052.083 215.403, 1050.450 215.871 C 1046.300 217.061, 1043.443 215.708, 1042.125 211.929 C 1041.494 210.118, 1041 202.403, 1041 194.351 L 1041 180 1049 180 L 1057 180 1057 170.500 L 1057 161 1049 161 L 1041 161 1041 146.500 L 1041 132 1028 132 L 1015 132 1015 146.500 M 744 159.065 C 735.225 160.073, 727.071 163.301, 720.748 168.268 C 714.990 172.791, 714.065 173.774, 710.525 179.131 C 703.943 189.090, 703.269 205.011, 708.943 216.536 C 717.177 233.262, 737.464 242.272, 759.581 239.026 C 774.995 236.764, 787.163 228.509, 793.219 216.206 C 796.297 209.955, 796.500 208.890, 796.500 199.021 C 796.500 189.480, 796.235 187.960, 793.652 182.699 C 785.399 165.893, 765.794 156.561, 744 159.065 M 954.461 158.940 C 949.570 159.713, 942.488 163.246, 938.750 166.777 L 936 169.374 936 165.187 L 936 161 923 161 L 910 161 910 199.500 L 910 238 923 238 L 936 238 936.007 213.750 C 936.014 186.820, 936.057 186.622, 943.028 181.480 C 945.529 179.635, 947.643 179, 951.290 179 C 957.322 179, 961.146 181.136, 963.906 186.046 C 965.871 189.542, 966 191.263, 966 213.886 L 966 238 979 238 L 992 238 991.990 209.250 C 991.981 181.096, 991.931 180.396, 989.613 175.500 C 985.498 166.812, 976.937 160.819, 966.662 159.435 C 964.373 159.126, 961.600 158.745, 960.500 158.587 C 959.400 158.430, 956.682 158.588, 954.461 158.940 M 1099.580 159.135 C 1081.117 161.741, 1065.840 177.566, 1064.327 195.656 C 1063.160 209.592, 1069.037 222.246, 1080.848 231.232 C 1088.952 237.398, 1095.753 239.449, 1108 239.419 C 1124.026 239.380, 1136.218 233.767, 1144.132 222.783 L 1146.090 220.065 1136.948 215.474 L 1127.807 210.883 1123.298 214.396 C 1111.421 223.649, 1093.461 218.776, 1091.343 205.727 L 1090.738 202 1118.998 202 L 1147.257 202 1146.803 194.250 C 1145.409 170.445, 1125.315 155.503, 1099.580 159.135 M 1207.326 159.047 C 1201.574 160.181, 1197.729 162.335, 1192.480 167.365 L 1188 171.657 1188 166.329 L 1188 161 1175 161 L 1162 161 1162 199.500 L 1162 238 1175 238 L 1188 238 1188 215.816 C 1188 195.305, 1188.159 193.303, 1190.105 189.282 C 1193.850 181.547, 1204.332 178.697, 1213.583 182.898 L 1217.667 184.753 1222.833 174.365 C 1225.675 168.651, 1228 163.568, 1228 163.068 C 1228 162.025, 1220.168 159.391, 1215 158.695 C 1213.075 158.436, 1209.622 158.595, 1207.326 159.047 M 809 184.951 C 809 198.876, 809.471 211.120, 810.124 214.201 C 813.458 229.914, 822.049 236.763, 841.408 239.142 C 852.126 240.459, 864.522 239.404, 873.240 236.434 C 879.639 234.254, 886.224 228.177, 889.111 221.788 C 891.416 216.685, 891.511 215.528, 891.808 188.750 L 892.116 161 879.122 161 L 866.129 161 865.814 185.429 C 865.520 208.292, 865.367 210.039, 863.429 212.679 C 860.067 217.258, 855.357 219.203, 849.059 218.614 C 836.887 217.476, 835.104 212.915, 835.044 182.750 L 835 161 822 161 L 809 161 809 184.951 M 1101.542 175.729 C 1098.260 176.563, 1094.974 179.149, 1093.449 182.099 C 1090.426 187.945, 1090.552 188, 1107.067 188 L 1122.135 188 1121.485 185.750 C 1119.176 177.754, 1110.578 173.434, 1101.542 175.729 M 747.221 181.146 C 737.735 182.830, 732.518 190.087, 733.191 200.657 C 733.636 207.648, 735.489 211.006, 740.954 214.726 C 751.460 221.877, 766.190 215.961, 769.010 203.457 C 770.682 196.041, 766.800 186.104, 761.022 183.012 C 757.682 181.225, 751.490 180.387, 747.221 181.146 M 559 278.500 L 559 285 897.500 285 L 1236 285 1236 278.500 L 1236 272 897.500 272 L 559 272 559 278.500 M 880 308.920 C 871.633 310.663, 863.427 317.323, 859.032 325.937 L 856.978 329.964 863.835 333.417 L 870.692 336.870 872.274 333.551 C 874.706 328.452, 879.771 323.209, 882.938 322.514 C 887.527 321.506, 892.804 324.286, 894.639 328.678 C 898.427 337.745, 893.149 346.691, 871.495 367.903 C 862.649 376.568, 857 382.861, 857 384.051 C 857 385.938, 857.918 386, 886 386 L 915 386 915 378.500 L 915 371 900.750 370.968 L 886.500 370.937 889.500 368.805 C 895.704 364.396, 908.689 350.361, 911.060 345.500 C 914.685 338.071, 914.548 327.282, 910.746 320.815 C 907.690 315.617, 904.050 312.631, 898.316 310.619 C 893.251 308.841, 884.343 308.015, 880 308.920" stroke="none" fill="#004aad" fill-rule="evenodd"/><path d="M 468 137.500 C 468 153.725, 467.732 167, 467.404 167 C 467.077 167, 465.522 166.083, 463.948 164.963 C 456.055 159.343, 445.409 157.085, 435.458 158.921 C 422.676 161.279, 413.548 168.517, 407.670 180.955 C 402.627 191.626, 402.807 208.737, 408.071 219.118 C 411.427 225.736, 419.465 233.481, 426.209 236.595 C 431.756 239.157, 433.623 239.500, 442 239.499 C 452.682 239.498, 457.730 237.810, 464.301 232.041 L 468 228.793 468 233.396 L 468 238 481 238 L 494 238 494 173 L 494 108 481 108 L 468 108 468 137.500 M 53.219 114.224 C 53.468 114.926, 61.479 143.063, 71.021 176.750 L 88.370 238 104.110 238 L 119.850 238 121.230 233.250 C 121.989 230.637, 126.411 215.115, 131.055 198.755 C 135.700 182.395, 139.725 169.010, 140 169.010 C 140.275 169.010, 144.300 182.395, 148.945 198.755 C 153.589 215.115, 158.011 230.637, 158.770 233.250 L 160.150 238 175.825 237.996 L 191.500 237.993 208.905 176.746 C 218.477 143.061, 226.517 114.926, 226.772 114.224 C 227.137 113.216, 223.909 113.006, 211.428 113.224 L 195.623 113.500 185.283 155 C 179.596 177.825, 174.683 197.175, 174.366 198 C 173.643 199.876, 173.533 199.497, 160.927 151.750 L 150.696 113 140.019 113 L 129.343 113 117.964 155.960 C 111.706 179.587, 106.342 198.679, 106.043 198.386 C 105.744 198.093, 100.748 178.873, 94.941 155.676 L 84.382 113.500 68.574 113.224 C 56.095 113.006, 52.861 113.217, 53.219 114.224 M 1027.999 131.734 L 1041 132.058 1041 146.529 L 1041 161 1049 161 L 1057 161 1057 170.500 L 1057 180 1049 180 L 1041 180 1041.221 195.250 L 1041.442 210.500 1041.748 195.750 L 1042.053 181 1050.027 181 L 1058 181 1058 170.500 L 1058 160 1050.027 160 L 1042.055 160 1041.777 145.750 L 1041.500 131.500 1028.249 131.455 L 1014.997 131.409 1027.999 131.734 M 265.182 159.119 C 254.152 160.953, 241.780 168.179, 235.995 176.166 C 230.590 183.627, 228.764 190.300, 229.198 201 C 229.678 212.824, 232.550 219.744, 239.982 226.982 C 257.894 244.430, 292.106 244.430, 310.018 226.982 C 321.473 215.825, 324.708 197.096, 317.758 182.163 C 314.857 175.929, 305.783 166.997, 298.983 163.682 C 288.892 158.764, 276.982 157.155, 265.182 159.119 M 376.159 159.849 C 372.711 161.079, 369.079 163.468, 365.909 166.590 L 361 171.425 361 165.712 L 361 160 347.500 160 L 334 160 334 199 L 334 238 347.500 238 L 361 238 361 216.468 C 361 193.658, 361.566 190.220, 366.119 185.374 C 369.390 181.892, 376.102 180.481, 382.541 181.922 C 385.525 182.589, 388.225 183.555, 388.542 184.068 C 389.867 186.211, 391.263 184.442, 396.522 173.957 L 402.060 162.914 397.393 160.850 C 390.706 157.891, 382.703 157.514, 376.159 159.849 M 815.250 160.742 C 818.962 160.934, 825.038 160.934, 828.750 160.742 C 832.462 160.549, 829.425 160.392, 822 160.392 C 814.575 160.392, 811.538 160.549, 815.250 160.742 M 878.733 160.747 L 891.965 161.058 892.251 185.779 L 892.537 210.500 892.768 185.250 L 893 160 879.250 160.218 L 865.500 160.437 878.733 160.747 M 909.238 199.250 L 909.476 238.500 909.750 199.779 L 910.023 161.058 923.262 160.747 L 936.500 160.437 922.750 160.218 L 909 160 909.238 199.250 M 1003.215 170.250 L 1003.500 180.500 1009.255 180.582 L 1015.010 180.664 1009.505 180.282 L 1004 179.900 1004 170.500 L 1004 161.100 1009.750 160.739 L 1015.500 160.378 1009.215 160.189 L 1002.930 160 1003.215 170.250 M 1161.238 199.250 L 1161.476 238.500 1161.750 199.779 L 1162.023 161.058 1175.262 160.747 L 1188.500 160.437 1174.750 160.218 L 1161 160 1161.238 199.250 M 267.500 182.417 C 258.290 186.528, 254.448 197.785, 258.905 207.599 C 261.903 214.199, 266.064 216.500, 275 216.500 C 281.257 216.500, 283.043 216.113, 285.773 214.166 C 294.336 208.058, 295.526 194.477, 288.186 186.627 C 283.148 181.239, 274.214 179.421, 267.500 182.417 M 442.500 182.417 C 433.290 186.528, 429.448 197.785, 433.905 207.599 C 436.903 214.199, 441.064 216.500, 450 216.500 C 456.257 216.500, 458.043 216.113, 460.773 214.166 C 469.336 208.058, 470.526 194.477, 463.186 186.627 C 458.148 181.239, 449.214 179.421, 442.500 182.417 M 992.439 211 C 992.439 226.125, 992.578 232.313, 992.748 224.750 C 992.917 217.188, 992.917 204.813, 992.748 197.250 C 992.578 189.688, 992.439 195.875, 992.439 211 M 1147 197.500 L 1147 202 1119 202 L 1091 202 1091.136 204.750 C 1091.253 207.108, 1091.334 207.179, 1091.706 205.250 L 1092.139 203 1120.070 203 L 1148 203 1148 198 C 1148 195.250, 1147.775 193, 1147.500 193 C 1147.225 193, 1147 195.025, 1147 197.500 M 18 278 L 18 285 267 285 L 516 285 516 278 L 516 271 267 271 L 18 271 18 278 M 558.432 279 L 558.500 285.500 897 285.502 L 1235.500 285.504 897.296 285.251 L 559.091 284.997 558.727 278.749 L 558.363 272.500 558.432 279 M 241.750 316.191 L 231 323.260 231 331.729 L 231 340.198 234.336 338.229 C 236.171 337.146, 238.871 335.475, 240.336 334.515 L 243 332.770 243 359.385 L 243 386 252.012 386 L 261.024 386 260.762 347.750 L 260.500 309.500 256.500 309.311 C 253.070 309.149, 250.968 310.130, 241.750 316.191 M 915.343 378.500 C 915.346 382.900, 915.522 384.576, 915.733 382.224 C 915.945 379.872, 915.942 376.272, 915.727 374.224 C 915.512 372.176, 915.339 374.100, 915.343 378.500" stroke="none" fill="#295fcf" fill-rule="evenodd"/></svg>